<svg width="798" height="560" viewBox="0 0 798 560" fill="none" xmlns="http://www.w3.org/2000/svg">
<path d="M56.2934 557C56.2934 557 -69.4538 218.042 56.2933 127C243.462 -8.50658 247.258 23.8497 338.898 0.723831C508.046 -4.95619 647.842 17.0413 768.206 277.918C814.904 411.262 811.014 433.725 725.59 557H56.2934Z" fill="#D1D1E0"/>
<g clip-path="url(#clip0)">
<path d="M544.339 390.59C544.339 390.59 525.653 368.73 543.188 354.85C543.188 354.85 555.991 347.075 566.436 347.705C566.436 347.705 551.641 372.582 556.429 375.061C561.217 377.532 570.92 346.147 570.92 346.147C570.92 346.147 600.058 343.315 609.436 347.833C609.436 347.833 584.522 368.277 589.769 369.495C595.016 370.713 621.922 350.644 621.922 350.644C621.922 350.644 649.047 355.275 647.599 371.86C646.151 388.452 636.808 393.571 632.698 393.132C628.588 392.693 604.563 383.495 604.041 386.872C603.518 390.25 617.981 401.276 628.108 401.793C628.108 401.793 608.984 422.938 596.28 416.834C583.568 410.729 582.488 401.056 574.564 397.431C566.641 393.805 559.882 393.812 563.152 397.509C566.422 401.212 580.758 404.802 585.291 412.84C589.818 420.877 593.886 426.294 580.736 424.312C567.587 422.329 546.217 412.677 545.278 401.63C544.339 390.59 544.339 390.59 544.339 390.59Z" fill="#91B8EF"/>
<path d="M634.273 372.313C634.273 372.313 560.61 369.466 544.339 390.59C544.339 390.59 540.745 401.396 529.671 411.232L527.948 415.948C527.948 415.948 540.716 402.451 545.278 401.637C545.278 401.637 538.132 375.464 634.273 372.313Z" fill="#91B8EF"/>
<path d="M529.671 411.232C529.671 411.232 513.859 422.959 512.758 443.906L515.625 444.161C515.625 444.161 520.674 422.499 529.805 414.029C538.937 405.56 529.671 411.232 529.671 411.232Z" fill="#91B8EF"/>
<path d="M479.016 363.1C479.016 363.1 508.733 346.409 494.87 323.763C494.87 323.763 483.776 309.855 471.883 306.279C471.883 306.279 478.225 340.057 471.883 340.851C465.542 341.644 467.526 302.703 467.526 302.703C467.526 302.703 436.22 287.606 423.932 288.795C423.932 288.795 443.353 321.773 437.011 320.98C430.67 320.187 408.876 286.806 408.876 286.806C408.876 286.806 376.78 280.85 371.624 299.92C366.476 318.99 374.795 328.529 379.548 329.726C384.301 330.915 414.815 330.519 414.025 334.491C413.234 338.464 392.627 344.823 381.137 341.247C381.137 341.247 393.82 372.639 410.458 371.053C427.103 369.459 432.251 359.135 442.555 358.334C452.858 357.541 460.386 360.324 455.238 363.1C450.09 365.883 432.654 364.014 424.328 371.102C416.009 378.198 409.272 382.567 424.723 385.746C440.175 388.926 467.915 386.936 473.465 375.018C479.016 363.1 479.016 363.1 479.016 363.1Z" fill="#91B8EF"/>
<path d="M386.285 305.883C386.285 305.883 469.504 332.905 479.016 363.1C479.016 363.1 478.621 376.611 486.94 392.105V398.068C486.94 398.068 478.218 377.801 473.465 375.018C473.465 375.025 492.095 348.796 386.285 305.883Z" fill="#91B8EF"/>
<path d="M486.939 392.112C486.939 392.112 499.771 411.657 492.455 435.443L489.15 434.558C489.15 434.558 492.356 408.357 485.64 395.179C478.931 381.993 486.939 392.112 486.939 392.112Z" fill="#91B8EF"/>
<path d="M526.296 340.086C526.296 340.086 487.116 318.084 505.399 288.229C505.399 288.229 520.025 269.895 535.695 265.179C535.695 265.179 527.341 309.7 535.695 310.748C544.057 311.796 541.444 260.463 541.444 260.463C541.444 260.463 582.714 240.557 598.907 242.129C598.907 242.129 573.314 285.602 581.669 284.554C590.03 283.506 618.758 239.509 618.758 239.509C618.758 239.509 661.074 231.656 667.86 256.795C674.654 281.934 663.68 294.51 657.416 296.082C651.145 297.654 610.927 297.13 611.972 302.37C613.017 307.611 640.177 315.988 655.325 311.279C655.325 311.279 638.61 352.655 616.668 350.566C594.726 348.47 587.94 334.853 574.36 333.805C560.779 332.756 550.85 336.425 557.644 340.093C564.437 343.761 587.417 341.297 598.392 350.644C609.359 359.999 618.243 365.756 597.869 369.948C577.495 374.14 540.928 371.52 533.619 355.806C526.296 340.086 526.296 340.086 526.296 340.086Z" fill="#95C0F4"/>
<path d="M648.532 264.662C648.532 264.662 538.838 300.281 526.303 340.086C526.303 340.086 526.826 357.895 515.858 378.325V386.185C515.858 386.185 527.348 359.474 533.619 355.806C533.612 355.799 509.058 321.228 648.532 264.662Z" fill="#95C0F4"/>
<path d="M515.851 378.325C515.851 378.325 498.931 404.087 508.577 435.443L512.928 434.268C512.928 434.268 508.705 399.732 517.553 382.361C526.409 364.991 515.851 378.325 515.851 378.325Z" fill="#95C0F4"/>
<path d="M524.975 503.439C567.361 503.439 601.718 468.988 601.718 426.485H448.24C448.24 468.988 482.596 503.439 524.975 503.439Z" fill="#95C0F4"/>
<path d="M602.777 507.355H447.181C447.181 502.115 451.418 497.859 456.651 497.859H593.321C598.54 497.859 602.777 502.108 602.777 507.355Z" fill="#95C0F4"/>
<path d="M603.462 426.485H445.711V428.844H603.462V426.485Z" fill="#9FC1F4"/>
</g>
<g clip-path="url(#clip1)">
<path d="M639.888 180.819C633.432 177.607 628.263 179.627 628.263 179.627C608.514 177.402 602.752 199.49 603.018 207.09C603.284 214.69 604.188 222.852 595.371 232.727C569.892 261.247 623.251 262.504 623.251 262.504C623.703 239.72 652.188 248.032 650.937 250.342C687.448 258.743 654.569 188.121 639.888 180.819Z" fill="#163560"/>
<path d="M563.702 275.816C563.702 275.816 560.228 270.747 557.431 270.646C554.631 270.546 549.45 269.156 549.861 270.151C550.277 271.145 553.489 271.246 553.8 271.842C554.11 272.438 549.03 273.332 547.577 273.432C546.125 273.533 542.703 273.432 542.808 274.129C542.912 274.826 548.973 277.708 553.251 277.31C557.528 276.911 562.814 278.502 562.814 278.502L563.702 275.816Z" fill="#FFCAA6"/>
<path d="M613.934 277.453C613.934 277.453 612.045 281.036 608.623 285.158C604.495 290.115 598.132 295.842 590.142 296.972C586.324 297.51 582.592 296.724 579.162 295.261C579.154 295.258 579.15 295.258 579.15 295.258C569.445 291.129 562.149 281.628 562.149 281.628C560.438 277.155 563.238 274.121 563.238 274.121C563.238 274.121 582.834 278.347 584.698 277.453C586.562 276.559 597.45 246.484 600.04 242.707C602.635 238.926 611.468 236.964 611.468 236.964L613.934 277.453Z" fill="#875E41"/>
<path d="M608.623 285.158C604.495 290.115 598.131 295.842 590.141 296.972C586.324 297.51 582.591 296.724 579.161 295.261C579.54 295.308 589.233 296.457 593.095 289.828C597.033 283.068 601.295 272.33 607.15 275.909C609.676 277.457 609.563 281.296 608.623 285.158Z" fill="#F2CCAA"/>
<path d="M687.036 480.287C687.036 480.287 693.017 485.519 691.851 489.238C690.684 492.957 685.289 495.433 684.559 499.98C683.828 504.523 680.915 507.004 678.288 507.004C675.665 507.004 665.774 507.004 665.774 507.004C665.774 507.004 663.842 503.807 668.51 502.844C673.175 501.88 674.935 496.54 674.644 491.583C674.354 486.626 675.08 480.017 675.08 480.017L684.995 477.815L687.036 480.287Z" fill="#233862"/>
<path d="M636.43 482.509C636.43 482.509 638.581 504.674 635.958 505.917L602.364 505.851C602.364 505.851 602.364 502.132 607.759 501.308C613.155 500.483 622.634 497.453 624.24 490.705C625.842 483.952 636.43 482.509 636.43 482.509Z" fill="#233862"/>
<path d="M660.368 323.479C653.455 308.612 649.226 304.344 650.033 299.731C650.635 296.295 648.201 235.699 648.201 235.699C647.382 235.455 645.736 235.238 644.84 235.045C642.003 234.441 639.659 232.53 638.682 229.91C637.508 226.748 636.572 222.085 636.592 216.238L635.708 216.405L620.818 219.233C620.818 219.233 621.157 223.726 621.165 227.959C621.165 227.994 621.165 228.029 621.165 228.064C621.181 231.74 618.667 234.987 614.983 236.005C613.102 236.527 611.464 236.972 611.464 236.972C611.464 236.972 605.996 251.94 604.951 267.318C603.906 282.696 614.894 289.376 604.866 320.105C594.641 351.484 664.189 331.695 660.368 323.479Z" fill="#FFCAA6"/>
<path d="M620.817 219.23C620.817 219.23 621.156 223.722 621.164 227.956C629.497 227.731 633.9 220.441 635.704 216.401L620.817 219.23Z" fill="#E8945B"/>
<path d="M618.033 223.239C618.033 223.239 637.746 223.552 637.762 211.776C637.774 200.001 640.328 192.111 627.742 191.414C615.156 190.718 612.707 195.206 611.706 199.138C610.701 203.062 612.909 222.852 618.033 223.239Z" fill="#FFCAA6"/>
<path d="M618.764 191.124C618.764 191.124 624.163 204.939 632.443 206.982C640.728 209.025 644.319 206.897 644.319 206.897C644.319 206.897 637.964 202.056 636.648 193.608C636.648 193.604 622.835 184.545 618.764 191.124Z" fill="#163560"/>
<path d="M620.1 192.242C620.1 192.242 616.097 193.678 614.45 196.476C612.84 199.211 611.468 202.837 611.787 207.288C611.787 207.288 607.719 197.896 612.291 192.587C617.138 186.952 620.1 192.242 620.1 192.242Z" fill="#163560"/>
<path d="M622.323 215.932C622.323 215.932 620.963 217.651 618.243 217.527C616.052 217.426 615.205 215.604 615.205 215.604C615.205 215.604 619.232 214.675 622.323 215.932Z" fill="#EBF3FA"/>
<path d="M662.272 262.504C662.272 262.504 662.773 269.273 662.272 277.395C661.937 282.778 656.26 289.991 655.457 291.775C653.435 296.248 651.155 296.976 651.155 296.976L633.517 301.12L627.315 302.575L607.76 296.976C607.76 296.976 598.85 273.135 602.429 259.71C606.004 246.29 611.472 236.968 611.472 236.968C611.472 236.968 627.432 251.952 648.209 235.699L662.272 262.504Z" fill="#875E41"/>
<path d="M657.111 279.589C656.78 284.972 656.264 289.987 655.457 291.771C653.435 296.244 651.155 296.972 651.155 296.972L633.517 301.116L625.858 298.957C625.858 298.957 651.429 295.242 648.597 274.141L657.111 279.589Z" fill="#F2CCAA"/>
<path d="M608.998 300.594C608.998 300.594 599.313 329.504 598.692 339.345C598.071 349.186 617.206 479.165 617.977 483.701C618.703 487.977 624.239 490.701 624.239 490.701C624.239 490.701 626.786 492.14 630.417 491.157C635.457 489.791 637.051 488.158 637.051 488.158C637.051 488.158 644.589 395.46 639.924 362.343C635.26 329.226 635.203 300.594 635.203 300.594H608.998Z" fill="#ED7D2B"/>
<path d="M650.033 299.731C650.033 299.731 664.806 318.739 666.182 331.59C667.558 344.442 668.341 389.578 671.275 402.104C674.208 414.63 684.991 438.739 684.991 477.811C684.991 477.811 683.869 480.051 680.411 481.243C679.305 481.626 677.82 481.994 676.383 482.311C673.53 482.938 670.601 481.603 669.301 479.088C662.014 465.014 638.795 419.626 637.604 410.207C636.761 403.54 629.433 359.413 613.441 333.517C609.604 327.303 615.798 302.579 615.798 302.579L650.033 299.731Z" fill="#F99746"/>
<path d="M621.887 216.246C621.887 216.246 621.548 217.635 617.944 217.419C617.944 217.419 614.922 217.241 615.015 215.716C615.015 215.716 617.944 214.632 621.887 216.246Z" fill="white"/>
<path d="M607.453 296.128C607.453 296.128 611.343 299.077 619.066 299.228C628.291 299.406 651.155 296.972 651.155 296.972C651.155 296.972 652.172 299.692 652.131 302.567C652.131 302.567 624.211 309.32 608.034 303.554C608.03 303.554 605.944 299.789 607.453 296.128Z" fill="#233862"/>
<path d="M616.851 306.851C614.531 306.851 612.642 304.8 612.642 302.281C612.642 299.762 614.531 297.711 616.851 297.711C619.171 297.711 621.06 299.762 621.06 302.281C621.06 304.804 619.171 306.851 616.851 306.851ZM616.851 299.05C615.297 299.05 614.038 300.501 614.038 302.281C614.038 304.061 615.301 305.512 616.851 305.512C618.4 305.512 619.663 304.061 619.663 302.281C619.663 300.501 618.404 299.05 616.851 299.05Z" fill="white"/>
<path d="M647.137 263.802L618.529 287.69L652.627 325.243L681.235 301.355L647.137 263.802Z" fill="#B5453C"/>
<path d="M644.698 301.445C644.698 301.445 634.219 302.622 634.251 305.005C634.283 307.393 636.862 312.292 638.157 312.509C639.452 312.725 646.688 305.88 646.688 305.88L644.698 301.445Z" fill="#FFCAA6"/>
<path d="M648.205 235.695C648.205 235.695 662.199 236.635 667.562 249.142C672.925 261.645 683.102 282.642 683.102 286.175C683.102 289.708 677.416 300.594 646.885 306.855C646.885 306.855 643.726 303.67 643.919 301.151C643.919 301.151 662.978 285.452 662.926 283.617C662.829 280.146 659.802 275.565 643.068 259.513C638.52 255.148 648.205 235.695 648.205 235.695Z" fill="#875E41"/>
<path d="M358.23 506.23H358.085C357.233 506.23 356.552 505.557 356.568 504.744L358.868 409.224L365.639 408.466L359.869 504.748C359.816 505.58 359.098 506.23 358.23 506.23Z" fill="#B0D4FF"/>
<path d="M318.781 506.23H318.636C317.784 506.23 317.102 505.557 317.118 504.744L319.419 409.224L326.19 408.466L320.415 504.748C320.367 505.58 319.649 506.23 318.781 506.23Z" fill="#95C0F4"/>
<path d="M427.637 506.23H427.782C428.633 506.23 429.315 505.557 429.299 504.744L426.999 409.224L420.228 408.466L425.998 504.748C426.051 505.58 426.769 506.23 427.637 506.23Z" fill="#B0D4FF"/>
<path d="M314.298 403.3V337.847C314.298 326.331 324.035 316.994 336.044 316.994H385.218C397.227 316.994 406.964 326.331 406.964 337.847V405.803L314.298 403.3Z" fill="#B0D4FF"/>
<path d="M415.773 413.636H320.827C317.219 413.636 314.298 410.834 314.298 407.374V403.304H415.773V413.636Z" fill="#95C0F4"/>
<path d="M427.152 413.636H355.32C352.653 413.636 350.494 411.561 350.494 409.007V407.936C350.494 405.378 352.657 403.307 355.32 403.307H427.152C429.82 403.307 431.979 405.382 431.979 407.936V409.007C431.979 411.561 429.82 413.636 427.152 413.636Z" fill="#B0D4FF"/>
<path d="M77.6285 411.395H77.4186C74.9773 411.395 73 409.495 73 407.154V317.69C73 315.349 74.9773 313.453 77.4186 313.453H77.6285C80.0698 313.453 82.0471 315.349 82.0471 317.69V407.158C82.0471 409.495 80.0698 411.395 77.6285 411.395Z" fill="#B0D4FF"/>
<path d="M77.487 506.23H77.3418C76.4903 506.23 75.8084 505.557 75.8245 504.744L78.1246 409.224L84.8958 408.466L79.1213 504.748C79.0689 505.58 78.3546 506.23 77.487 506.23Z" fill="#95C0F4"/>
<path d="M186.339 506.23H186.484C187.336 506.23 188.018 505.557 188.001 504.744L185.701 409.224L178.93 408.466L184.705 504.748C184.753 505.58 185.471 506.23 186.339 506.23Z" fill="#B0D4FF"/>
<path d="M185.855 403.3H174.475H114.023H73V407.37C73 410.83 75.9215 413.632 79.5291 413.632H114.023H174.475H185.855C188.522 413.632 190.681 411.557 190.681 409.003V407.932C190.685 405.374 188.522 403.3 185.855 403.3Z" fill="#B0D4FF"/>
<path d="M242.353 485.809C242.353 485.809 240.69 505.615 244.387 505.878C244.879 505.913 263.143 505.913 263.143 505.913L286.458 505.785C286.458 505.785 286.305 500.398 279.489 499.257C272.674 498.119 259.184 492.616 255.056 483.979C250.718 474.893 242.353 485.809 242.353 485.809Z" fill="#163560"/>
<path d="M102.086 377.311C102.086 377.311 102.861 396.775 106.44 403.3H188.902C188.902 403.3 208.715 405.265 210.523 406.546C212.802 408.164 202.585 424.2 240.88 486.877L259.636 486.421C259.636 486.421 240.02 384.775 236.538 382.202C231.324 378.355 170.319 364.958 159.876 364.668C149.432 364.374 102.086 377.311 102.086 377.311Z" fill="#1C468A"/>
<path d="M148.315 261.982C154.678 265.763 155.037 273.289 155.037 273.289C139.518 277.139 116.932 260.616 116.932 260.616C116.932 260.616 126.923 254.18 130.624 240.033C130.809 239.321 130.983 238.586 131.132 237.839C131.617 235.455 131.919 232.878 131.972 230.095L139.102 236.221L150.958 246.406C150.958 246.406 150.687 250.632 149.206 257.903C148.952 259.172 148.653 260.535 148.315 261.982Z" fill="#FFB27D"/>
<path d="M157.083 340.119C156.554 343.439 157.628 346.113 158.14 348.582C158.342 349.526 158.459 350.44 158.374 351.349C157.527 360.536 160.941 361.7 159.871 364.665C159.871 364.665 156.224 366.712 149.541 369.138C146.636 370.191 143.153 371.32 139.146 372.381C138.936 372.435 138.727 372.489 138.513 372.547C122.997 376.568 106.686 377.427 102.078 377.311C93.2772 377.086 91.4976 355.687 94.7662 328.738C99.8547 286.756 106.731 266.401 124.857 251.692C125.999 250.768 125.229 253.917 131.322 256.735C136.951 259.331 143.742 259.943 149.012 258.82L153.157 262.895C161.389 275.367 162.252 290.169 161.554 302.509C160.67 318.112 158.616 330.561 157.083 340.119Z" fill="#B0D4FF"/>
<path d="M150.962 246.406C150.962 246.406 151.591 245.768 150.11 253.039C136.979 249.394 132.702 242.982 130.947 238.725C130.446 237.521 135.829 236.883 139.106 236.217L150.962 246.406Z" fill="#ED975D"/>
<path d="M157.063 246.445C157.063 246.445 131.726 249.924 129.708 234.759C127.69 219.593 123.062 209.83 139.155 206.966C155.247 204.103 159.165 209.505 161.123 214.412C163.084 219.315 163.604 245.149 157.063 246.445Z" fill="#FFB27D"/>
<path d="M252.421 358.846L254.358 359.427L270.228 310.768L268.29 310.187L252.421 358.846Z" fill="#1C468A"/>
<path d="M198.583 358.87L254.37 359.426L254.404 356.226L198.618 355.67L198.583 358.87Z" fill="#1C468A"/>
<path d="M121.629 207.272C121.427 207.044 120.955 206.858 119.902 206.796C119.902 206.796 120.749 206.297 121.875 206.281C122.105 204.881 122.908 202.4 125.43 201.816C125.43 201.816 124.07 202.497 123.881 203.99C126.822 201.139 133.093 199.091 150.401 200.535C173.208 202.435 165.573 216.389 162.603 218.038C159.633 219.686 152.237 215.05 146.728 215.425C141.22 215.805 140.111 223.424 138.234 224.457C136.358 225.491 137.108 223.645 134.59 222.53C132.072 221.416 131.798 225.429 132.508 228.045C133.218 230.661 129.716 234.077 129.716 234.077C129.716 234.077 129.716 234.077 126.237 230.428C122.759 226.779 119.579 211.405 121.201 208.147C121.342 207.856 121.484 207.566 121.629 207.272Z" fill="#2C3A64"/>
<path d="M159.876 364.668C159.876 364.668 156.228 366.715 149.545 369.142C120.637 348.915 120.794 301.035 120.637 300.218L156.946 330.878L158.145 348.582C158.346 349.526 158.463 350.439 158.379 351.349C157.527 360.535 160.945 361.704 159.876 364.668Z" fill="#91B8EF"/>
<path d="M212.213 342.141C212.213 342.141 214.538 342.505 216.991 341.398C219.445 340.295 227.907 336.809 229.496 337.285C231.086 337.761 236.276 340.57 237.498 341.104C238.721 341.638 240.88 344.378 240.88 344.378C239.984 345.245 236.833 343.256 235.424 343.294C234.016 343.333 223.617 348.781 220.526 348.898C217.435 349.018 212.617 348.41 212.617 348.41L212.213 342.141Z" fill="#FFB27D"/>
<path d="M231.066 342.58C231.095 342.743 234.868 346.775 237.745 345.498L234.593 342.51L231.066 342.58Z" fill="#FFB27D"/>
<path d="M216.991 341.4C216.991 341.4 220.377 338.393 221.499 336.95C221.499 336.95 222.173 337.248 222.201 337.793C222.245 338.707 221.313 340.386 221.313 340.386L216.991 341.4Z" fill="#FFB27D"/>
<path d="M150.393 269.961C131.782 259.091 109.818 278.08 119.055 297.007C129.764 318.952 147.588 345.715 161.752 347.297C171.848 348.423 200.7 351.972 212.919 349.786C212.919 349.786 218.839 350.064 215.627 340.924C215.627 340.924 176.142 330.371 169.584 322.187C166.07 317.802 160.081 308.921 150.82 270.221C150.788 270.058 150.538 270.046 150.393 269.961Z" fill="#B0D4FF"/>
<path d="M424.364 386.993C417.318 398.749 408.461 403.288 408.461 403.288H371.599C371.595 403.288 429.739 378.023 424.364 386.993Z" fill="#233862"/>
<path d="M396.053 477.966C395.092 479.022 394.971 480.202 395.443 481.46C395.443 481.464 395.447 481.472 395.451 481.475C396.331 483.805 399.236 486.405 402.61 489.006C403.042 489.339 403.425 489.644 403.76 489.923C403.849 489.997 403.938 490.07 404.018 490.144C404.087 490.202 404.151 490.26 404.216 490.314C407.363 493.096 406.177 493.731 411.831 499.377C418.275 505.808 422.714 505.924 423.977 505.336C425.046 504.837 422.875 501.428 420.47 497.593C420.353 497.407 420.24 497.221 420.119 497.035C419.8 496.525 419.481 496.01 419.163 495.495C416.346 490.883 417.068 488.716 417.738 481.851C418.279 476.271 426.789 450.68 426.789 450.68L414.437 448.641C414.437 448.641 410.717 469.019 406.621 472.157C404.43 473.829 401.976 473.852 399.87 475.09C399.721 475.176 399.575 475.265 399.43 475.357C398.236 476.124 397.017 476.909 396.053 477.966Z" fill="#875E41"/>
<path d="M396.053 477.966C395.092 479.022 394.971 480.202 395.443 481.46C395.443 481.464 395.447 481.471 395.451 481.475C396.529 483.801 399.357 486.39 402.622 488.983C403.05 489.323 403.425 489.633 403.76 489.923C403.849 489.996 403.938 490.07 404.018 490.144C404.087 490.202 404.151 490.26 404.216 490.314C407.363 493.096 406.177 493.731 411.83 499.377C418.275 505.808 422.714 505.924 423.977 505.336C425.046 504.837 422.875 501.428 420.47 497.593C419.215 497.152 413.388 494.88 408.982 489.474C405.1 484.726 402.513 478.623 399.87 475.09C399.721 475.175 399.575 475.264 399.43 475.357C398.236 476.124 397.017 476.909 396.053 477.966Z" fill="#233862"/>
<path d="M495.643 470.567C496.406 474.224 501.841 473.612 507.91 472.192C513.984 470.768 512.539 472.459 521.178 471.542C529.818 470.625 532.437 467.537 532.699 466.302C532.933 465.207 528.664 464.824 524.084 464.317C523.507 464.255 522.93 464.186 522.353 464.12C517.184 463.497 513.394 460.297 508.697 457.669C504.25 455.181 497.608 445.038 497.608 445.038L485.757 445.94C485.757 445.94 491.975 454.999 494.38 458.934C495.797 461.252 495.72 464.313 495.542 466.678C495.462 467.966 495.373 469.282 495.643 470.567Z" fill="#875E41"/>
<path d="M507.914 472.192C513.988 470.768 512.543 472.459 521.182 471.542C529.822 470.625 532.441 467.537 532.703 466.302C532.937 465.207 528.668 464.824 524.088 464.317L524.043 464.402C524.043 464.402 518.862 467.928 511.667 468.09C505.804 468.226 499.594 466.616 495.546 466.678C495.454 467.962 495.369 469.278 495.639 470.567C496.406 474.224 501.841 473.616 507.914 472.192Z" fill="#233862"/>
<path d="M450.23 397.901L439.153 426.487L424.691 463.814C424.691 463.814 420.765 464.178 417.008 463.141C413.545 462.181 409.575 459.673 409.575 459.673C409.575 459.673 413.59 419.595 421.083 396.59C423.004 390.684 425.155 385.909 427.528 383.22C439.141 370.055 450.23 397.901 450.23 397.901Z" fill="#233862"/>
<path d="M438.968 352.502C431.708 350.258 411.011 353.141 390.217 357.041L385.863 350.153L340.951 346.79C340.951 346.79 326.129 378.309 334.244 398.393C335.439 401.345 337.807 403.238 341.847 403.3C341.847 403.3 342.5 403.3 342.504 403.3C342.504 403.3 369.238 403.284 377.918 403.284C400.253 403.284 425.187 388.56 428.415 387.941C433.694 386.927 435.808 397.054 441.086 407.688C446.364 418.322 490.716 454.774 490.716 454.774C490.716 454.774 497.532 454.84 500.348 453.826C503.375 452.739 504.485 451.323 504.485 451.323C504.485 451.323 455.335 357.564 438.968 352.502Z" fill="#2B478B"/>
<path d="M384.095 224.744C378.341 221.845 369.588 221.455 368.164 221.273C351.143 219.079 340.902 242.796 340.3 249.982C339.191 263.228 331.883 265.248 321.597 273.541C300.977 290.173 307.021 309.502 318.3 316.684C325.067 320.991 336.991 316.684 336.991 316.684C337.161 316.796 369.605 299.29 385.6 290.846C409.574 287.572 398.755 232.123 384.095 224.744Z" fill="#233862"/>
<path d="M372.192 283.652C372.261 283.695 364.323 286.295 359.013 284.039C354.017 281.922 350.236 274.044 350.309 274.04C352.581 273.939 355.074 272.035 356.995 259.536L357.964 259.869L374.23 265.48C374.23 265.48 373.051 270.484 372.289 275.251C371.647 279.256 371.304 283.087 372.192 283.652Z" fill="#875E41"/>
<path d="M374.23 265.484C374.23 265.484 373.051 270.488 372.289 275.255C362.947 273.641 359.279 264.714 357.963 259.873L374.23 265.484Z" fill="#9F7C65"/>
<path d="M376.655 270.453C376.655 270.453 354.4 267.589 356.474 254.324C358.548 241.062 357.072 231.759 371.369 233.025C385.666 234.294 387.631 239.75 388.059 244.34C388.49 248.929 382.498 270.855 376.655 270.453Z" fill="#875E41"/>
<path d="M387.248 237.069C387.248 237.069 373.003 248.84 363.311 249.792C353.622 250.74 349.95 247.757 349.95 247.757C349.95 247.757 355.664 243.21 359.098 235.869C360.111 233.706 362.249 232.22 364.715 232.019C371.635 231.446 384.754 231.183 387.248 237.069Z" fill="#233862"/>
<path d="M378.342 236.016C378.342 236.016 383.107 240.435 384.609 243.713C386.057 246.875 386.493 254.44 385.339 257.447C385.339 257.447 392.764 243.601 388.559 236.871C384.1 229.736 378.342 236.016 378.342 236.016Z" fill="#233862"/>
<path d="M390.932 315.094C390.258 358.295 390.746 349.267 385.819 353.369C384.633 354.356 381.291 354.944 376.901 355.222C363.088 356.101 338.804 353.918 337.88 351.473C334.692 343.002 336.944 340.37 334.285 327.403C334.006 326.026 333.663 324.532 333.264 322.907C331.048 313.998 328.889 310.968 336.754 296.658C343.884 283.695 351.293 273.177 351.959 273.556C370.772 284.268 372.289 275.263 372.289 275.263C372.289 275.263 391.263 294.019 390.932 315.094Z" fill="white"/>
<path d="M439.154 426.487L424.691 463.814C424.691 463.814 420.765 464.178 417.008 463.141C413.545 462.181 409.575 459.673 409.575 459.673C409.575 459.673 413.59 419.595 421.083 396.59L439.154 426.487Z" fill="#2B478B"/>
<path d="M372.293 275.255C372.293 275.255 391.654 278.401 393.926 286.396C396.198 294.391 409.579 341.381 409.579 341.381C409.579 341.381 399.737 343.075 395.189 338.714C390.641 334.353 379.371 298.264 379.371 298.264L372.293 275.255Z" fill="white"/>
<path d="M376.901 355.219C363.089 356.097 338.804 353.914 337.88 351.469C334.692 342.998 336.944 340.367 334.285 327.399L340.947 309.409C340.947 309.409 339.845 329.443 346.007 334.713C352.161 339.984 371.232 344.886 374.23 349.29C375.675 351.399 376.623 353.52 376.901 355.219Z" fill="#EBF3FF"/>
<path d="M361.075 346.794C361.075 346.794 374.702 343.884 376.901 345.045C379.1 346.206 384.475 350.428 385.149 351.898C385.823 353.369 380.254 350.784 378.443 350.316C377.268 350.014 374.181 351.043 372.652 351.531C366.22 353.586 362.277 352.529 362.277 352.529L361.075 346.794Z" fill="#875E41"/>
<path d="M351.947 273.541C351.947 273.541 333.647 274.62 327.312 283.095C318.394 295.021 300.703 345.854 310.844 352.63C322.259 360.265 362.806 354.627 362.806 354.627C362.806 354.627 364.154 348.578 362.277 345.653C360.401 342.727 329.894 338.002 328.486 336.652C327.077 335.301 346.088 310.322 346.088 306.271C346.088 302.219 351.947 273.541 351.947 273.541Z" fill="white"/>
<path d="M377.559 348.679C377.559 348.679 380.416 352.212 381.352 352.634C382.288 353.055 382.894 352.951 382.894 352.951L380.969 349.631L377.559 348.679Z" fill="#FFB27D"/>
<path d="M376.901 345.041L385.201 348.907C385.201 348.907 384.846 349.46 383.825 349.418C382.805 349.371 380.226 348.47 380.226 348.47L376.901 345.041Z" fill="#875E41"/>
<path d="M381.352 358.047H447.026L466.783 310.934H401.21L381.352 358.047Z" fill="#C5922C"/>
<path d="M447.797 356.209H361.075V358.047H447.026L447.797 356.209Z" fill="#C5922C"/>
<path d="M411.274 328.576C411.268 328.447 411.312 328.321 411.399 328.223C411.445 328.178 411.501 328.143 411.563 328.12C411.624 328.098 411.69 328.088 411.756 328.092H419.053C419.679 328.088 420.3 328.208 420.876 328.444C421.436 328.673 421.945 329.002 422.376 329.415C422.808 329.832 423.154 330.324 423.394 330.866C423.645 331.427 423.773 332.032 423.768 332.642C423.772 333.143 423.685 333.64 423.509 334.112C423.341 334.558 423.094 334.972 422.778 335.336C423.307 335.801 423.733 336.364 424.029 336.99C424.336 337.623 424.494 338.313 424.492 339.011C424.496 339.636 424.364 340.256 424.106 340.83C423.861 341.389 423.509 341.9 423.069 342.336C422.633 342.769 422.115 343.118 421.543 343.365C420.965 343.618 420.336 343.747 419.701 343.745H411.756C411.629 343.751 411.504 343.712 411.405 343.635C411.358 343.59 411.322 343.536 411.3 343.477C411.277 343.418 411.268 343.354 411.274 343.292V328.576ZM419.548 332.731C419.549 332.528 419.507 332.327 419.427 332.14C419.26 331.767 418.947 331.473 418.555 331.322C418.342 331.241 418.114 331.201 417.885 331.203H415.526V334.265H417.853C418.088 334.267 418.321 334.23 418.542 334.155C418.74 334.089 418.922 333.985 419.075 333.848C419.225 333.711 419.343 333.547 419.423 333.365C419.512 333.164 419.555 332.948 419.548 332.731ZM420.129 338.855C420.129 338.636 420.086 338.419 420.004 338.215C419.921 338.009 419.801 337.818 419.65 337.651C419.498 337.485 419.315 337.347 419.111 337.244C418.902 337.14 418.669 337.086 418.434 337.088H415.526V340.609H418.434C418.667 340.612 418.897 340.561 419.104 340.459C419.309 340.363 419.492 340.228 419.644 340.064C419.799 339.899 419.921 339.708 420.004 339.501C420.086 339.294 420.128 339.076 420.129 338.855Z" fill="#002171"/>
<path d="M436.221 332.819C435.85 332.566 435.444 332.365 435.016 332.221C434.576 332.076 434.114 332.003 433.65 332.006C433.089 331.997 432.532 332.103 432.016 332.318C431.501 332.533 431.038 332.851 430.658 333.252C430.282 333.649 429.989 334.112 429.794 334.617C429.581 335.145 429.472 335.707 429.472 336.274C429.472 336.84 429.581 337.4 429.794 337.926C429.989 338.423 430.28 338.88 430.652 339.272C431.02 339.661 431.467 339.972 431.966 340.185C432.497 340.409 433.071 340.521 433.65 340.512C433.907 340.512 434.164 340.493 434.418 340.456C434.672 340.422 434.945 340.375 435.231 340.319V337.515C435.227 337.391 435.271 337.27 435.353 337.175C435.4 337.129 435.457 337.093 435.52 337.07C435.582 337.046 435.649 337.037 435.716 337.041H438.727C438.856 337.048 438.98 337.094 439.081 337.172C439.14 337.209 439.188 337.26 439.22 337.32C439.253 337.38 439.269 337.447 439.267 337.515V342.699C439.264 342.799 439.232 342.896 439.176 342.979C439.119 343.062 439.039 343.128 438.946 343.17C438.585 343.406 438.2 343.605 437.795 343.762C437.367 343.927 436.926 344.062 436.478 344.167C436.021 344.276 435.557 344.357 435.09 344.41C434.636 344.463 434.18 344.49 433.724 344.491C432.964 344.493 432.207 344.396 431.474 344.201C430.064 343.825 428.779 343.097 427.746 342.092C427.237 341.597 426.793 341.042 426.426 340.44C426.054 339.83 425.768 339.174 425.574 338.49C425.274 337.433 425.195 336.329 425.341 335.242C425.488 334.156 425.856 333.108 426.426 332.162C426.792 331.553 427.235 330.992 427.746 330.491C428.257 329.995 428.832 329.565 429.456 329.211C430.09 328.854 430.768 328.576 431.474 328.385C433.031 327.972 434.677 327.994 436.221 328.451C437.007 328.691 437.754 329.039 438.438 329.485C438.559 329.551 438.658 329.65 438.724 329.769C438.756 329.833 438.769 329.905 438.761 329.976C438.753 330.047 438.725 330.114 438.679 330.171L436.889 332.682C436.812 332.779 436.713 332.858 436.6 332.912C436.534 332.927 436.465 332.926 436.399 332.91C436.333 332.893 436.272 332.862 436.221 332.819Z" fill="white"/>
<path d="M588.003 358.725H522.332L502.576 311.615H568.149L588.003 358.725Z" fill="#002171"/>
<path d="M521.562 356.89H608.284V358.725H522.332L521.562 356.89Z" fill="#002171"/>
<path d="M530.99 326.55C530.983 326.421 531.028 326.296 531.115 326.198C531.161 326.153 531.217 326.117 531.278 326.095C531.34 326.072 531.406 326.062 531.472 326.066H538.769C539.395 326.062 540.016 326.182 540.592 326.418C541.152 326.647 541.661 326.976 542.092 327.389C542.524 327.806 542.87 328.299 543.11 328.84C543.361 329.401 543.488 330.006 543.483 330.616C543.488 331.117 543.401 331.614 543.225 332.086C543.057 332.532 542.81 332.946 542.494 333.311C543.023 333.775 543.448 334.338 543.745 334.964C544.052 335.597 544.21 336.287 544.208 336.985C544.212 337.611 544.08 338.23 543.822 338.804C543.576 339.363 543.225 339.874 542.784 340.31C542.348 340.743 541.831 341.092 541.259 341.339C540.68 341.592 540.052 341.721 539.417 341.719H531.472C531.345 341.726 531.22 341.686 531.121 341.609C531.074 341.564 531.038 341.511 531.016 341.451C530.993 341.392 530.984 341.329 530.99 341.266V326.55ZM539.264 330.705C539.264 330.502 539.223 330.301 539.142 330.114C538.976 329.742 538.663 329.448 538.271 329.296C538.058 329.215 537.83 329.175 537.601 329.177H535.242V332.239H537.569C537.804 332.241 538.037 332.204 538.258 332.129C538.456 332.064 538.638 331.959 538.791 331.823C538.94 331.686 539.059 331.521 539.139 331.339C539.228 331.139 539.27 330.922 539.264 330.705ZM539.845 336.829C539.844 336.61 539.802 336.393 539.72 336.189C539.637 335.983 539.517 335.792 539.366 335.626C539.214 335.459 539.031 335.321 538.826 335.218C538.617 335.114 538.385 335.061 538.15 335.062H535.242V338.584H538.15C538.382 338.586 538.612 338.535 538.82 338.433C539.025 338.337 539.208 338.203 539.359 338.038C539.515 337.874 539.637 337.683 539.72 337.475C539.802 337.269 539.844 337.05 539.845 336.829Z" fill="white"/>
<path d="M555.936 330.793C555.565 330.54 555.16 330.339 554.731 330.195C554.291 330.05 553.83 329.978 553.365 329.98C552.804 329.971 552.247 330.078 551.732 330.293C551.216 330.507 550.753 330.826 550.373 331.226C549.997 331.623 549.704 332.087 549.509 332.591C549.297 333.12 549.188 333.682 549.188 334.249C549.188 334.814 549.297 335.374 549.509 335.9C549.704 336.398 549.995 336.854 550.367 337.246C550.735 337.635 551.183 337.946 551.681 338.159C552.212 338.384 552.786 338.495 553.365 338.486C553.622 338.486 553.879 338.468 554.133 338.43C554.387 338.396 554.66 338.349 554.946 338.293V335.489C554.942 335.365 554.986 335.244 555.068 335.149C555.115 335.103 555.172 335.067 555.235 335.044C555.298 335.021 555.365 335.011 555.432 335.015H558.443C558.572 335.022 558.695 335.068 558.796 335.146C558.855 335.183 558.903 335.234 558.936 335.294C558.968 335.354 558.984 335.421 558.983 335.489V340.674C558.98 340.773 558.948 340.87 558.891 340.953C558.834 341.036 558.755 341.102 558.661 341.144C558.301 341.381 557.915 341.579 557.511 341.736C557.082 341.901 556.642 342.037 556.193 342.141C555.736 342.25 555.272 342.331 554.805 342.384C554.352 342.437 553.896 342.464 553.439 342.465C552.679 342.467 551.923 342.37 551.19 342.175C549.779 341.799 548.494 341.072 547.462 340.066C546.952 339.571 546.508 339.017 546.141 338.415C545.769 337.804 545.483 337.148 545.289 336.464C544.99 335.407 544.91 334.303 545.057 333.217C545.203 332.13 545.572 331.082 546.141 330.136C546.507 329.527 546.951 328.966 547.462 328.466C547.973 327.969 548.547 327.539 549.171 327.185C549.805 326.828 550.483 326.55 551.19 326.359C552.746 325.946 554.392 325.969 555.936 326.425C556.723 326.665 557.469 327.013 558.154 327.459C558.275 327.526 558.374 327.624 558.44 327.743C558.472 327.807 558.485 327.879 558.477 327.95C558.469 328.021 558.44 328.089 558.395 328.145L556.605 330.656C556.528 330.754 556.429 330.832 556.315 330.887C556.249 330.901 556.18 330.9 556.114 330.884C556.048 330.868 555.987 330.837 555.936 330.793Z" fill="#C5922C"/>
</g>
<g clip-path="url(#clip2)">
<path d="M1441.97 359H121V367.076H1441.97V359Z" fill="#BC8551"/>
<path d="M135.669 367.387H121V560H135.669V367.387Z" fill="#807066"/>
<path d="M692.304 367.076H677.635V559.688H692.304V367.076Z" fill="#807066"/>
</g>
<path d="M518.491 39.7975H338.434V175.978H518.491V39.7975Z" fill="#F5F5F5"/>
<path d="M518.491 39.7975H338.434V56.8131H518.491V39.7975Z" fill="#002171"/>
<path d="M348.228 48.7926C348.228 49.9622 347.381 50.9369 346.356 50.9369C345.33 50.9369 344.484 49.99 344.484 48.7926C344.484 47.6229 345.33 46.6482 346.356 46.6482C347.381 46.676 348.228 47.6229 348.228 48.7926Z" fill="white"/>
<path d="M355.842 48.7926C355.842 49.9622 354.996 50.9369 353.97 50.9369C352.945 50.9369 352.099 49.99 352.099 48.7926C352.099 47.6229 352.945 46.6482 353.97 46.6482C354.996 46.676 355.842 47.6229 355.842 48.7926Z" fill="white"/>
<path d="M363.457 48.7926C363.457 49.9622 362.611 50.9369 361.585 50.9369C360.559 50.9369 359.713 49.99 359.713 48.7926C359.713 47.6229 360.559 46.6482 361.585 46.6482C362.611 46.676 363.457 47.6229 363.457 48.7926Z" fill="white"/>
<path d="M381.224 73.5225H355.56V140.387H381.224V73.5225Z" fill="#002171"/>
<path d="M420.784 73.5225H395.12V140.387H420.784V73.5225Z" fill="#C5922C"/>
<path d="M460.37 73.5225H434.706V140.387H460.37V73.5225Z" fill="white"/>
<path d="M499.929 74.0237H474.265V140.889H499.929V74.0237Z" fill="#C5922C"/>
<path d="M508.108 147.767H352.586V163.056H508.108V147.767Z" fill="#C5922C"/>
<path d="M486.802 157.932L490.135 176.34L492.904 171.216L498.801 180.378L501.749 178.317L495.853 169.155L501.262 168.292L486.802 157.932Z" fill="#002171"/>
<path d="M234 113.107H126V194.801H234V113.107Z" fill="#F5F5F5"/>
<path d="M234 103H126V113.209H234V103Z" fill="#FFC107"/>
<defs>
<clipPath id="clip0">
<rect width="300" height="269" fill="white" transform="translate(370 238.355)"/>
</clipPath>
<clipPath id="clip1">
<rect width="619" height="328" fill="white" transform="translate(73 179)"/>
</clipPath>
<clipPath id="clip2">
<rect width="571" height="201" fill="white" transform="translate(121 359)"/>
</clipPath>
</defs>
</svg>
