<svg width="40" height="24" viewBox="0 0 40 24" fill="none" xmlns="http://www.w3.org/2000/svg">
<path d="M35.0001 0C32.3801 0 30.2601 2.02 30.0401 4.6C26.2801 3.6 24.3601 1 20.0001 1C15.6201 1 13.7201 3.6 9.96012 4.6C9.74012 2.04 7.62012 0 5.00012 0C2.24012 0 0.00012207 2.24 0.00012207 5V6C0.00012207 18 7.20012 21.62 13.0401 21.96C15.0601 23.24 17.4401 24 20.0001 24C22.5601 24 24.9401 23.24 26.9601 21.96C32.8001 21.62 40.0001 18 40.0001 6V5C40.0001 2.24 37.7601 0 35.0001 0ZM3.00012 6V5C3.00012 3.9 3.90012 3 5.00012 3C6.10012 3 7.00012 3.9 7.00012 5V11C7.00012 13.56 7.76012 15.94 9.02012 17.96C5.98012 16.54 3.00012 13.3 3.00012 6ZM37.0001 6C37.0001 13.3 34.0201 16.54 30.9801 17.96C32.2601 15.94 33.0001 13.56 33.0001 11V5C33.0001 3.9 33.9001 3 35.0001 3C36.1001 3 37.0001 3.9 37.0001 5V6ZM17.3801 8.96C16.5001 9.48 15.4601 10.08 14.0001 10.48V8.4C14.9601 8.06 15.6801 7.64 16.3601 7.24C17.4401 6.6 18.4601 6 20.0001 6C21.5401 6 22.5401 6.6 23.6001 7.24C24.2801 7.64 25.0201 8.08 26.0001 8.42V10.5C24.5001 10.08 23.4801 9.48 22.5801 8.94C21.6601 8.4 20.9801 8 20.0001 8C19.0201 8 18.3201 8.4 17.3801 8.96Z" fill="#002171"/>
</svg>
