<svg width="95" height="18" viewBox="0 0 95 18" fill="none" xmlns="http://www.w3.org/2000/svg">
<path d="M3.70605 10.3613L9.8291 12.5205V15.5283L0.580078 11.6074V9.07227L9.8291 5.15137V8.15918L3.70605 10.3613ZM18.4229 11.5537H12.375V9.05078H18.4229V11.5537ZM26.9521 11.5537H20.9043V9.05078H26.9521V11.5537ZM43.2158 1.19824V3.75488H42.915C41.5114 3.77637 40.3799 4.1416 39.5205 4.85059C38.6683 5.55957 38.1562 6.54427 37.9844 7.80469C38.8151 6.95964 39.8643 6.53711 41.1318 6.53711C42.4925 6.53711 43.5739 7.02409 44.376 7.99805C45.1781 8.97201 45.5791 10.2539 45.5791 11.8438C45.5791 12.8607 45.3571 13.7809 44.9131 14.6045C44.4762 15.4281 43.8532 16.069 43.0439 16.5273C42.2419 16.9857 41.3324 17.2148 40.3154 17.2148C38.6683 17.2148 37.3363 16.6419 36.3193 15.4961C35.3096 14.3503 34.8047 12.8213 34.8047 10.9092V9.79199C34.8047 8.09473 35.1234 6.59798 35.7607 5.30176C36.4053 3.99837 37.3255 2.99219 38.5215 2.2832C39.7246 1.56706 41.1175 1.2054 42.7002 1.19824H43.2158ZM40.1865 9.0293C39.6852 9.0293 39.2305 9.16178 38.8223 9.42676C38.4141 9.68457 38.1133 10.0283 37.9199 10.458V11.4033C37.9199 12.4417 38.124 13.2546 38.5322 13.8418C38.9404 14.4219 39.5133 14.7119 40.251 14.7119C40.917 14.7119 41.4541 14.4505 41.8623 13.9277C42.2777 13.3978 42.4854 12.7139 42.4854 11.876C42.4854 11.0238 42.2777 10.3363 41.8623 9.81348C41.4469 9.29069 40.8883 9.0293 40.1865 9.0293ZM48.4043 17V7.6543H46.6748V5.37695H48.4043V4.38867C48.4043 3.08529 48.7767 2.07552 49.5215 1.35938C50.2734 0.636068 51.3226 0.274414 52.6689 0.274414C53.0986 0.274414 53.625 0.346029 54.248 0.489258L54.2158 2.89551C53.958 2.83105 53.6429 2.79883 53.2705 2.79883C52.1032 2.79883 51.5195 3.34668 51.5195 4.44238V5.37695H53.8291V7.6543H51.5195V17H48.4043ZM59.1572 2.51953V5.37695H61.1445V7.6543H59.1572V13.4551C59.1572 13.8848 59.2396 14.1927 59.4043 14.3789C59.569 14.5651 59.8841 14.6582 60.3496 14.6582C60.6934 14.6582 60.9977 14.6331 61.2627 14.583V16.9355C60.654 17.1217 60.0273 17.2148 59.3828 17.2148C57.2057 17.2148 56.0957 16.1156 56.0527 13.917V7.6543H54.3555V5.37695H56.0527V2.51953H59.1572ZM74.3896 11.5537H68.3418V9.05078H74.3896V11.5537ZM82.9189 11.5537H76.8711V9.05078H82.9189V11.5537ZM91.749 10.3291L85.5078 8.14844V5.16211L94.8643 9.08301V11.6074L85.5078 15.5391V12.542L91.749 10.3291Z" fill="#C5922C"/>
</svg>
