<svg width="38" height="38" viewBox="0 0 38 38" fill="none" xmlns="http://www.w3.org/2000/svg">
<path d="M3.67974 0.859863L0.859741 3.67986L9.57974 12.3999L8.99974 12.9999H0.999741V24.9999H8.99974L18.9997 34.9999V21.8199L27.3597 30.1799C26.0597 31.1599 24.5997 31.9399 22.9997 32.3999V36.5199C25.6797 35.9199 28.1397 34.6799 30.2197 33.0199L34.3197 37.1199L37.1397 34.2999L3.67974 0.859863ZM14.9997 25.3399L10.6597 20.9999H4.99974V16.9999H10.6597L12.4197 15.2399L14.9997 17.8199V25.3399ZM32.9997 18.9999C32.9997 20.6399 32.6997 22.2199 32.1797 23.6799L35.2397 26.7399C36.3597 24.3999 36.9997 21.7799 36.9997 18.9999C36.9997 10.4399 31.0197 3.27986 22.9997 1.45986V5.57986C28.7797 7.29986 32.9997 12.6599 32.9997 18.9999ZM18.9997 2.99986L15.2397 6.75986L18.9997 10.5199V2.99986ZM27.9997 18.9999C27.9997 15.4599 25.9597 12.4199 22.9997 10.9399V14.5199L27.9597 19.4799C27.9797 19.3199 27.9997 19.1599 27.9997 18.9999Z" fill="#002171"/>
</svg>
